<svg width="32" height="32" viewBox="0 0 32 32" fill="none" xmlns="http://www.w3.org/2000/svg">
<path d="M17 10V15.4338L21.515 18.1425C21.7424 18.2791 21.9063 18.5005 21.9705 18.7579C22.0347 19.0153 21.9941 19.2876 21.8575 19.515C21.7209 19.7425 21.4996 19.9063 21.2422 19.9705C20.9848 20.0348 20.7124 19.9941 20.485 19.8575L15.485 16.8575C15.337 16.7686 15.2146 16.6429 15.1296 16.4927C15.0446 16.3424 14.9999 16.1727 15 16V10C15 9.73483 15.1054 9.48047 15.2929 9.29294C15.4804 9.1054 15.7348 9.00004 16 9.00004C16.2652 9.00004 16.5196 9.1054 16.7071 9.29294C16.8946 9.48047 17 9.73483 17 10ZM28 7.00004C27.7348 7.00004 27.4804 7.1054 27.2929 7.29294C27.1054 7.48047 27 7.73483 27 8.00004V10.25C26.2062 9.33004 25.3962 8.44379 24.485 7.52129C22.8173 5.85343 20.6951 4.71399 18.3835 4.24536C16.072 3.77673 13.6736 3.99969 11.488 4.88638C9.30241 5.77306 7.42659 7.28416 6.09492 9.23085C4.76325 11.1775 4.03477 13.4735 4.00052 15.8318C3.96627 18.1902 4.62775 20.5063 5.90233 22.4909C7.1769 24.4754 9.00804 26.0403 11.1669 26.9901C13.3258 27.9399 15.7168 28.2324 18.041 27.8311C20.3652 27.4298 22.5196 26.3525 24.235 24.7338C24.3305 24.6435 24.4074 24.5353 24.4611 24.4153C24.5148 24.2953 24.5443 24.166 24.5481 24.0346C24.5518 23.9032 24.5296 23.7723 24.4827 23.6495C24.4359 23.5267 24.3653 23.4143 24.275 23.3188C24.1847 23.2233 24.0765 23.1464 23.9565 23.0927C23.8366 23.039 23.7072 23.0094 23.5758 23.0057C23.4444 23.002 23.3135 23.0242 23.1907 23.0711C23.0679 23.1179 22.9555 23.1885 22.86 23.2788C21.4301 24.6264 19.6348 25.5229 17.6984 25.8563C15.762 26.1897 13.7703 25.9452 11.972 25.1535C10.1737 24.3617 8.64852 23.0577 7.58689 21.4043C6.52526 19.7509 5.97424 17.8214 6.00264 15.8567C6.03104 13.892 6.63761 11.9793 7.74659 10.3573C8.85557 8.73525 10.4178 7.47589 12.2383 6.73643C14.0587 5.99698 16.0566 5.81021 17.9826 6.19945C19.9085 6.58868 21.6771 7.53668 23.0675 8.92504C24.085 9.95504 24.9762 10.9475 25.875 12H23C22.7348 12 22.4804 12.1054 22.2929 12.2929C22.1054 12.4805 22 12.7348 22 13C22 13.2653 22.1054 13.5196 22.2929 13.7071C22.4804 13.8947 22.7348 14 23 14H28C28.2652 14 28.5196 13.8947 28.7071 13.7071C28.8946 13.5196 29 13.2653 29 13V8.00004C29 7.73483 28.8946 7.48047 28.7071 7.29294C28.5196 7.1054 28.2652 7.00004 28 7.00004Z" fill="#A1A1AA"/>
</svg>
