<svg width="32" height="32" viewBox="0 0 32 32" fill="none" xmlns="http://www.w3.org/2000/svg">
<path d="M16 10.0001C14.8133 10.0001 13.6533 10.352 12.6666 11.0112C11.6799 11.6705 10.9108 12.6076 10.4567 13.704C10.0026 14.8003 9.88378 16.0067 10.1153 17.1706C10.3468 18.3345 10.9182 19.4036 11.7574 20.2427C12.5965 21.0818 13.6656 21.6533 14.8295 21.8848C15.9933 22.1163 17.1997 21.9975 18.2961 21.5433C19.3925 21.0892 20.3295 20.3202 20.9888 19.3335C21.6481 18.3468 22 17.1867 22 16.0001C21.9983 14.4093 21.3657 12.8841 20.2408 11.7592C19.116 10.6344 17.5908 10.0017 16 10.0001ZM16 20.0001C15.2089 20.0001 14.4355 19.7655 13.7777 19.3259C13.1199 18.8864 12.6072 18.2617 12.3045 17.5308C12.0017 16.7999 11.9225 15.9956 12.0769 15.2197C12.2312 14.4438 12.6122 13.731 13.1716 13.1716C13.731 12.6122 14.4437 12.2313 15.2196 12.0769C15.9956 11.9226 16.7998 12.0018 17.5307 12.3045C18.2616 12.6073 18.8864 13.12 19.3259 13.7778C19.7654 14.4356 20 15.2089 20 16.0001C20 17.0609 19.5786 18.0783 18.8284 18.8285C18.0783 19.5786 17.0609 20.0001 16 20.0001ZM27 16.2701C27.005 16.0901 27.005 15.9101 27 15.7301L28.865 13.4001C28.9628 13.2777 29.0305 13.1341 29.0626 12.9808C29.0947 12.8276 29.0904 12.6689 29.05 12.5176C28.7443 11.3683 28.2869 10.2649 27.69 9.23631C27.6118 9.1017 27.5033 8.9872 27.3731 8.90192C27.2429 8.81664 27.0946 8.76292 26.94 8.74506L23.975 8.41506C23.8517 8.28506 23.7267 8.16006 23.6 8.04006L23.25 5.06756C23.232 4.91282 23.1781 4.76443 23.0926 4.63422C23.0071 4.50401 22.8923 4.39557 22.7575 4.31756C21.7285 3.72174 20.6252 3.26485 19.4762 2.95881C19.3248 2.91855 19.1661 2.91444 19.0128 2.94679C18.8595 2.97914 18.716 3.04705 18.5938 3.14506L16.27 5.00006C16.09 5.00006 15.91 5.00006 15.73 5.00006L13.4 3.13881C13.2777 3.04102 13.1341 2.97333 12.9808 2.9412C12.8275 2.90906 12.6688 2.91338 12.5175 2.95381C11.3684 3.26009 10.2651 3.71741 9.23625 4.31381C9.10165 4.39196 8.98715 4.50046 8.90186 4.63067C8.81658 4.76087 8.76287 4.90919 8.745 5.06381L8.415 8.03381C8.285 8.15797 8.16 8.28297 8.04 8.40881L5.0675 8.75006C4.91277 8.76806 4.76438 8.82196 4.63416 8.90747C4.50395 8.99298 4.39551 9.10772 4.3175 9.24256C3.72168 10.2715 3.26479 11.3749 2.95875 12.5238C2.9185 12.6752 2.91438 12.834 2.94673 12.9872C2.97908 13.1405 3.047 13.2841 3.145 13.4063L5 15.7301C5 15.9101 5 16.0901 5 16.2701L3.13875 18.6001C3.04096 18.7224 2.97327 18.866 2.94114 19.0193C2.90901 19.1726 2.91332 19.3312 2.95375 19.4826C3.25949 20.6318 3.71684 21.7352 4.31375 22.7638C4.39191 22.8984 4.50041 23.0129 4.63061 23.0982C4.76082 23.1835 4.90913 23.2372 5.06375 23.2551L8.02875 23.5851C8.15292 23.7151 8.27792 23.8401 8.40375 23.9601L8.75 26.9326C8.768 27.0873 8.8219 27.2357 8.90741 27.3659C8.99292 27.4961 9.10766 27.6045 9.2425 27.6826C10.2715 28.2784 11.3748 28.7353 12.5238 29.0413C12.6752 29.0816 12.8339 29.0857 12.9872 29.0533C13.1405 29.021 13.284 28.9531 13.4062 28.8551L15.73 27.0001C15.91 27.0051 16.09 27.0051 16.27 27.0001L18.6 28.8651C18.7223 28.9628 18.8659 29.0305 19.0192 29.0627C19.1725 29.0948 19.3312 29.0905 19.4825 29.0501C20.6317 28.7443 21.7352 28.287 22.7638 27.6901C22.8984 27.6119 23.0129 27.5034 23.0981 27.3732C23.1834 27.243 23.2371 27.0947 23.255 26.9401L23.585 23.9751C23.715 23.8517 23.84 23.7267 23.96 23.6001L26.9325 23.2501C27.0872 23.2321 27.2356 23.1782 27.3658 23.0926C27.496 23.0071 27.6045 22.8924 27.6825 22.7576C28.2783 21.7286 28.7352 20.6253 29.0413 19.4763C29.0815 19.3249 29.0856 19.1662 29.0533 19.0129C29.0209 18.8596 28.953 18.716 28.855 18.5938L27 16.2701ZM24.9875 15.4576C25.0087 15.8189 25.0087 16.1812 24.9875 16.5426C24.9726 16.79 25.0501 17.0341 25.205 17.2276L26.9788 19.4438C26.7752 20.0906 26.5146 20.7181 26.2 21.3188L23.375 21.6388C23.129 21.6661 22.9018 21.7837 22.7375 21.9688C22.4969 22.2394 22.2406 22.4957 21.97 22.7363C21.7849 22.9006 21.6673 23.1278 21.64 23.3738L21.3263 26.1963C20.7256 26.5111 20.0981 26.7717 19.4513 26.9751L17.2337 25.2013C17.0563 25.0595 16.8359 24.9824 16.6087 24.9826H16.5487C16.1874 25.0038 15.8251 25.0038 15.4637 24.9826C15.2164 24.9677 14.9722 25.0452 14.7788 25.2001L12.5562 26.9751C11.9094 26.7715 11.2819 26.5109 10.6812 26.1963L10.3612 23.3751C10.3339 23.129 10.2164 22.9019 10.0312 22.7376C9.76064 22.4969 9.50436 22.2407 9.26375 21.9701C9.09942 21.7849 8.87227 21.6674 8.62625 21.6401L5.80375 21.3251C5.48899 20.7244 5.22838 20.0969 5.025 19.4501L6.79875 17.2326C6.95363 17.0391 7.03114 16.795 7.01625 16.5476C6.995 16.1862 6.995 15.8239 7.01625 15.4626C7.03114 15.2152 6.95363 14.971 6.79875 14.7776L5.025 12.5563C5.22853 11.9095 5.48914 11.282 5.80375 10.6813L8.625 10.3613C8.87102 10.334 9.09817 10.2164 9.2625 10.0313C9.50311 9.76069 9.75939 9.50442 10.03 9.26381C10.2158 9.09937 10.3339 8.8717 10.3612 8.62506L10.675 5.80381C11.2756 5.48905 11.9031 5.22843 12.55 5.02506L14.7675 6.79881C14.961 6.95369 15.2051 7.0312 15.4525 7.01631C15.8139 6.99506 16.1761 6.99506 16.5375 7.01631C16.7849 7.0312 17.029 6.95369 17.2225 6.79881L19.4438 5.02506C20.0906 5.22859 20.7181 5.4892 21.3188 5.80381L21.6388 8.62506C21.6661 8.87108 21.7836 9.09822 21.9688 9.26256C22.2394 9.50317 22.4956 9.75944 22.7362 10.0301C22.9006 10.2152 23.1277 10.3327 23.3738 10.3601L26.1963 10.6738C26.511 11.2744 26.7716 11.9019 26.975 12.5488L25.2013 14.7663C25.0449 14.9614 24.9673 15.2081 24.9837 15.4576H24.9875Z" fill="#A1A1AA"/>
</svg>
