<svg width="48" height="48" viewBox="0 0 48 48" fill="none" xmlns="http://www.w3.org/2000/svg">
<path d="M43.575 21.4668L16.56 4.94058C16.1045 4.66168 15.5829 4.50943 15.0489 4.49954C14.5149 4.48965 13.988 4.62249 13.5225 4.88433C13.0615 5.14211 12.6774 5.51804 12.4098 5.97347C12.1422 6.42889 12.0008 6.94737 12 7.47558V40.5243C12.0035 41.3167 12.3214 42.0752 12.884 42.6332C13.4466 43.1912 14.2077 43.5029 15 43.5C15.553 43.4997 16.0953 43.3473 16.5675 43.0593L43.575 26.5331C44.0091 26.2685 44.3679 25.8967 44.6168 25.4534C44.8658 25.0101 44.9966 24.5102 44.9966 24.0018C44.9966 23.4934 44.8658 22.9936 44.6168 22.5503C44.3679 22.107 44.0091 21.7352 43.575 21.4706V21.4668ZM15 40.4887V7.49996L41.9681 24L15 40.4887Z" fill="#A1A1AA"/>
</svg>
