<svg width="16" height="17" viewBox="0 0 16 17" fill="none" xmlns="http://www.w3.org/2000/svg">
<path d="M15.5 8.25C15.4993 7.58771 15.3111 6.93914 14.9572 6.37935C14.6032 5.81957 14.098 5.37146 13.5 5.08688V5C13.4994 4.35576 13.2915 3.72882 12.9069 3.21195C12.5223 2.69507 11.9816 2.31572 11.3647 2.13002C10.7478 1.94432 10.0875 1.96214 9.48156 2.18084C8.87558 2.39954 8.3561 2.80751 7.99998 3.34438C7.64387 2.80751 7.12438 2.39954 6.5184 2.18084C5.91242 1.96214 5.25214 1.94432 4.63524 2.13002C4.01835 2.31572 3.47762 2.69507 3.09306 3.21195C2.70851 3.72882 2.50056 4.35576 2.49998 5V5.08688C1.90144 5.37068 1.39573 5.81851 1.04161 6.37833C0.687493 6.93814 0.499512 7.58696 0.499512 8.24937C0.499512 8.91179 0.687493 9.56061 1.04161 10.1204C1.39573 10.6802 1.90144 11.1281 2.49998 11.4119V11.5C2.50056 12.1442 2.70851 12.7712 3.09306 13.2881C3.47762 13.8049 4.01835 14.1843 4.63524 14.37C5.25214 14.5557 5.91242 14.5379 6.5184 14.3192C7.12438 14.1005 7.64387 13.6925 7.99998 13.1556C8.3561 13.6925 8.87558 14.1005 9.48156 14.3192C10.0875 14.5379 10.7478 14.5557 11.3647 14.37C11.9816 14.1843 12.5223 13.8049 12.9069 13.2881C13.2915 12.7712 13.4994 12.1442 13.5 11.5V11.4119C14.0979 11.1275 14.6031 10.6796 14.957 10.12C15.311 9.56048 15.4992 8.91211 15.5 8.25ZM5.49998 13.5C5.00682 13.4999 4.53108 13.3177 4.16412 12.9882C3.79716 12.6587 3.56487 12.2053 3.51186 11.715C3.67355 11.7381 3.83665 11.7498 3.99998 11.75H4.49998C4.63259 11.75 4.75977 11.6973 4.85353 11.6036C4.9473 11.5098 4.99998 11.3826 4.99998 11.25C4.99998 11.1174 4.9473 10.9902 4.85353 10.8964C4.75977 10.8027 4.63259 10.75 4.49998 10.75H3.99998C3.40971 10.7507 2.83823 10.5425 2.38672 10.1623C1.93521 9.78206 1.6328 9.25434 1.53303 8.67256C1.43326 8.09078 1.54256 7.49246 1.84159 6.98353C2.14062 6.4746 2.61008 6.08789 3.16686 5.89188C3.26428 5.85738 3.34861 5.79355 3.40827 5.70916C3.46792 5.62477 3.49996 5.52397 3.49998 5.42063V5C3.49998 4.46957 3.71069 3.96086 4.08577 3.58579C4.46084 3.21071 4.96955 3 5.49998 3C6.03041 3 6.53912 3.21071 6.9142 3.58579C7.28927 3.96086 7.49998 4.46957 7.49998 5V9.26625C6.95093 8.77243 6.23844 8.49946 5.49998 8.5C5.36737 8.5 5.2402 8.55268 5.14643 8.64645C5.05266 8.74021 4.99998 8.86739 4.99998 9C4.99998 9.13261 5.05266 9.25979 5.14643 9.35355C5.2402 9.44732 5.36737 9.5 5.49998 9.5C6.03041 9.5 6.53912 9.71071 6.9142 10.0858C7.28927 10.4609 7.49998 10.9696 7.49998 11.5C7.49998 12.0304 7.28927 12.5391 6.9142 12.9142C6.53912 13.2893 6.03041 13.5 5.49998 13.5ZM12 10.75H11.5C11.3674 10.75 11.2402 10.8027 11.1464 10.8964C11.0527 10.9902 11 11.1174 11 11.25C11 11.3826 11.0527 11.5098 11.1464 11.6036C11.2402 11.6973 11.3674 11.75 11.5 11.75H12C12.1633 11.7498 12.3264 11.7381 12.4881 11.715C12.4466 12.0992 12.2946 12.4631 12.0507 12.7627C11.8067 13.0624 11.4812 13.2849 11.1134 13.4035C10.7456 13.5221 10.3514 13.5316 9.97835 13.4309C9.6053 13.3301 9.26942 13.1235 9.01131 12.8359C8.75321 12.5484 8.58393 12.1922 8.52394 11.8105C8.46396 11.4288 8.51583 11.0378 8.6733 10.685C8.83077 10.3321 9.08708 10.0324 9.41125 9.82212C9.73543 9.61183 10.1136 9.49994 10.5 9.5C10.6326 9.5 10.7598 9.44732 10.8535 9.35355C10.9473 9.25979 11 9.13261 11 9C11 8.86739 10.9473 8.74021 10.8535 8.64645C10.7598 8.55268 10.6326 8.5 10.5 8.5C9.76153 8.49946 9.04904 8.77243 8.49998 9.26625V5C8.49998 4.46957 8.7107 3.96086 9.08577 3.58579C9.46084 3.21071 9.96955 3 10.5 3C11.0304 3 11.5391 3.21071 11.9142 3.58579C12.2893 3.96086 12.5 4.46957 12.5 5V5.42063C12.5 5.52397 12.532 5.62477 12.5917 5.70916C12.6513 5.79355 12.7357 5.85738 12.8331 5.89188C13.3899 6.08789 13.8593 6.4746 14.1584 6.98353C14.4574 7.49246 14.5667 8.09078 14.4669 8.67256C14.3672 9.25434 14.0648 9.78206 13.6132 10.1623C13.1617 10.5425 12.5903 10.7507 12 10.75ZM13 7.5C13 7.63261 12.9473 7.75979 12.8535 7.85355C12.7598 7.94732 12.6326 8 12.5 8H12.25C11.6532 8 11.0809 7.76295 10.659 7.34099C10.237 6.91903 9.99998 6.34674 9.99998 5.75V5.5C9.99998 5.36739 10.0527 5.24022 10.1464 5.14645C10.2402 5.05268 10.3674 5 10.5 5C10.6326 5 10.7598 5.05268 10.8535 5.14645C10.9473 5.24022 11 5.36739 11 5.5V5.75C11 6.08152 11.1317 6.39946 11.3661 6.63388C11.6005 6.8683 11.9185 7 12.25 7H12.5C12.6326 7 12.7598 7.05268 12.8535 7.14645C12.9473 7.24021 13 7.36739 13 7.5ZM3.74998 8H3.49998C3.36737 8 3.2402 7.94732 3.14643 7.85355C3.05266 7.75979 2.99998 7.63261 2.99998 7.5C2.99998 7.36739 3.05266 7.24021 3.14643 7.14645C3.2402 7.05268 3.36737 7 3.49998 7H3.74998C4.0815 7 4.39944 6.8683 4.63386 6.63388C4.86828 6.39946 4.99998 6.08152 4.99998 5.75V5.5C4.99998 5.36739 5.05266 5.24022 5.14643 5.14645C5.2402 5.05268 5.36737 5 5.49998 5C5.63259 5 5.75977 5.05268 5.85353 5.14645C5.9473 5.24022 5.99998 5.36739 5.99998 5.5V5.75C5.99998 6.34674 5.76293 6.91903 5.34097 7.34099C4.91901 7.76295 4.34672 8 3.74998 8Z" fill="#84CC16"/>
</svg>
