<svg width="16" height="17" viewBox="0 0 16 17" fill="none" xmlns="http://www.w3.org/2000/svg">
<path d="M5 4V2C5 1.86739 5.05268 1.74021 5.14645 1.64645C5.24021 1.55268 5.36739 1.5 5.5 1.5C5.63261 1.5 5.75979 1.55268 5.85355 1.64645C5.94732 1.74021 6 1.86739 6 2V4C6 4.13261 5.94732 4.25979 5.85355 4.35355C5.75979 4.44732 5.63261 4.5 5.5 4.5C5.36739 4.5 5.24021 4.44732 5.14645 4.35355C5.05268 4.25979 5 4.13261 5 4ZM7.5 4.5C7.63261 4.5 7.75979 4.44732 7.85355 4.35355C7.94732 4.25979 8 4.13261 8 4V2C8 1.86739 7.94732 1.74021 7.85355 1.64645C7.75979 1.55268 7.63261 1.5 7.5 1.5C7.36739 1.5 7.24021 1.55268 7.14645 1.64645C7.05268 1.74021 7 1.86739 7 2V4C7 4.13261 7.05268 4.25979 7.14645 4.35355C7.24021 4.44732 7.36739 4.5 7.5 4.5ZM9.5 4.5C9.63261 4.5 9.75979 4.44732 9.85355 4.35355C9.94732 4.25979 10 4.13261 10 4V2C10 1.86739 9.94732 1.74021 9.85355 1.64645C9.75979 1.55268 9.63261 1.5 9.5 1.5C9.36739 1.5 9.24021 1.55268 9.14645 1.64645C9.05268 1.74021 9 1.86739 9 2V4C9 4.13261 9.05268 4.25979 9.14645 4.35355C9.24021 4.44732 9.36739 4.5 9.5 4.5ZM15.5 8V8.5C15.4998 9.13597 15.2572 9.74795 14.8217 10.2114C14.3861 10.6748 13.7904 10.9548 13.1556 10.9944C12.8146 11.9591 12.2339 12.8213 11.4681 13.5H13C13.1326 13.5 13.2598 13.5527 13.3536 13.6464C13.4473 13.7402 13.5 13.8674 13.5 14C13.5 14.1326 13.4473 14.2598 13.3536 14.3536C13.2598 14.4473 13.1326 14.5 13 14.5H2C1.86739 14.5 1.74021 14.4473 1.64645 14.3536C1.55268 14.2598 1.5 14.1326 1.5 14C1.5 13.8674 1.55268 13.7402 1.64645 13.6464C1.74021 13.5527 1.86739 13.5 2 13.5H3.53375C2.89581 12.9364 2.38468 12.2439 2.03411 11.4682C1.68354 10.6925 1.50149 9.85124 1.5 9V6C1.5 5.86739 1.55268 5.74021 1.64645 5.64645C1.74021 5.55268 1.86739 5.5 2 5.5H13C13.663 5.5 14.2989 5.76339 14.7678 6.23223C15.2366 6.70107 15.5 7.33696 15.5 8ZM12.5 6.5H2.5V9C2.50193 9.9388 2.76723 10.8582 3.26575 11.6537C3.76427 12.4492 4.47599 13.0889 5.32 13.5H9.68C10.524 13.0889 11.2357 12.4492 11.7343 11.6537C12.2328 10.8582 12.4981 9.9388 12.5 9V6.5ZM14.5 8C14.4999 7.68989 14.4037 7.38743 14.2246 7.13425C14.0455 6.88107 13.7924 6.68962 13.5 6.58625V9C13.4996 9.31398 13.4745 9.62745 13.425 9.9375C13.7352 9.84585 14.0075 9.65636 14.2013 9.3973C14.395 9.13824 14.4998 8.82349 14.5 8.5V8Z" fill="#F59E0B"/>
</svg>
