<svg width="16" height="16" viewBox="0 0 16 16" fill="none" xmlns="http://www.w3.org/2000/svg">
<path d="M13.0194 4.72999C13.1722 4.23699 13.2212 3.71767 13.1634 3.20478C13.1055 2.69188 12.942 2.19654 12.6831 1.74999C12.6392 1.67397 12.5761 1.61084 12.5001 1.56695C12.424 1.52307 12.3378 1.49997 12.25 1.49999C11.6676 1.49877 11.093 1.63378 10.5721 1.89423C10.0512 2.15468 9.59845 2.53335 9.25 2.99999H7.75C7.40155 2.53335 6.94878 2.15468 6.42788 1.89423C5.90698 1.63378 5.33238 1.49877 4.75 1.49999C4.66221 1.49997 4.57597 1.52307 4.49994 1.56695C4.4239 1.61084 4.36077 1.67397 4.31687 1.74999C4.05803 2.19654 3.89452 2.69188 3.83664 3.20478C3.77877 3.71767 3.8278 4.23699 3.98062 4.72999C3.6717 5.26919 3.50623 5.8786 3.5 6.49999V6.99999C3.50105 7.84599 3.80817 8.66305 4.36464 9.30028C4.92111 9.93751 5.68935 10.3519 6.5275 10.4669C6.18538 10.9047 5.99968 11.4444 6 12V12.5H4.5C4.10218 12.5 3.72064 12.342 3.43934 12.0607C3.15804 11.7793 3 11.3978 3 11C3 10.6717 2.93534 10.3466 2.8097 10.0433C2.68406 9.73997 2.49991 9.46437 2.26777 9.23223C2.03562 9.00008 1.76002 8.81593 1.45671 8.69029C1.15339 8.56466 0.828305 8.49999 0.5 8.49999C0.367392 8.49999 0.240215 8.55267 0.146447 8.64644C0.0526784 8.74021 0 8.86738 0 8.99999C0 9.1326 0.0526784 9.25978 0.146447 9.35355C0.240215 9.44731 0.367392 9.49999 0.5 9.49999C0.897825 9.49999 1.27936 9.65803 1.56066 9.93933C1.84196 10.2206 2 10.6022 2 11C2 11.663 2.26339 12.2989 2.73223 12.7678C3.20107 13.2366 3.83696 13.5 4.5 13.5H6V14.5C6 14.6326 6.05268 14.7598 6.14645 14.8535C6.24021 14.9473 6.36739 15 6.5 15C6.63261 15 6.75979 14.9473 6.85355 14.8535C6.94732 14.7598 7 14.6326 7 14.5V12C7 11.6022 7.15804 11.2206 7.43934 10.9393C7.72064 10.658 8.10218 10.5 8.5 10.5C8.89782 10.5 9.27936 10.658 9.56066 10.9393C9.84196 11.2206 10 11.6022 10 12V14.5C10 14.6326 10.0527 14.7598 10.1464 14.8535C10.2402 14.9473 10.3674 15 10.5 15C10.6326 15 10.7598 14.9473 10.8536 14.8535C10.9473 14.7598 11 14.6326 11 14.5V12C11.0003 11.4444 10.8146 10.9047 10.4725 10.4669C11.3107 10.3519 12.0789 9.93751 12.6354 9.30028C13.1918 8.66305 13.4989 7.84599 13.5 6.99999V6.49999C13.4938 5.8786 13.3283 5.26919 13.0194 4.72999ZM12.5 6.99999C12.5 7.66303 12.2366 8.29892 11.7678 8.76776C11.2989 9.2366 10.663 9.49999 10 9.49999H7C6.33696 9.49999 5.70107 9.2366 5.23223 8.76776C4.76339 8.29892 4.5 7.66303 4.5 6.99999V6.49999C4.50613 6.00001 4.65582 5.51232 4.93125 5.09499C4.98259 5.02732 5.01585 4.94768 5.02788 4.86358C5.03991 4.77949 5.03031 4.69372 5 4.61437C4.86976 4.27849 4.80709 3.92022 4.81556 3.56007C4.82403 3.19993 4.90349 2.845 5.04938 2.51562C5.45857 2.55964 5.85262 2.69519 6.2023 2.91222C6.55198 3.12926 6.84832 3.42221 7.06938 3.76937C7.11442 3.83981 7.17641 3.89783 7.24968 3.93812C7.32294 3.97841 7.40514 3.99968 7.48875 3.99999H9.51062C9.59455 4 9.67713 3.97887 9.75075 3.93857C9.82437 3.89826 9.88666 3.84008 9.93188 3.76937C10.1529 3.42218 10.4492 3.12921 10.7989 2.91217C11.1486 2.69513 11.5427 2.55959 11.9519 2.51562C12.0976 2.84508 12.1768 3.20006 12.1851 3.5602C12.1933 3.92034 12.1304 4.27857 12 4.61437C11.9698 4.69297 11.9597 4.77786 11.9706 4.86136C11.9815 4.94486 12.0131 5.0243 12.0625 5.09249C12.3407 5.50982 12.4926 5.99851 12.5 6.49999V6.99999Z" fill="#71717A"/>
</svg>
