<svg width="689" height="689" viewBox="0 0 689 689" fill="none" xmlns="http://www.w3.org/2000/svg">
<path d="M295.67 227.19C312.944 182.302 377.056 182.302 394.33 227.19V227.19C401.77 246.524 420.163 259.887 440.85 260.988V260.988C488.878 263.545 508.69 324.52 471.337 354.819V354.819C455.249 367.869 448.223 389.491 453.568 409.506V409.506C465.978 455.974 414.11 493.659 373.751 467.497V467.497C356.367 456.228 333.633 456.228 316.249 467.497V467.497C275.89 493.659 224.022 455.974 236.432 409.506V409.506C241.777 389.491 234.752 367.869 218.663 354.819V354.819C181.31 324.52 201.122 263.545 249.151 260.988V260.988C269.837 259.887 288.23 246.524 295.67 227.19V227.19Z" fill="#3247B4"/>
<path d="M214.945 255.68C206.091 213.048 249.965 178.77 289.188 197.674L314.983 210.107C330.559 217.614 348.831 216.976 363.845 208.4L388.71 194.199C426.519 172.605 472.677 203.739 466.819 246.884L462.966 275.258C460.64 292.391 466.893 309.572 479.688 321.201L500.878 340.461C533.099 369.747 517.752 423.266 474.909 431.027L446.732 436.131C429.719 439.213 415.312 450.47 408.205 466.232L396.436 492.337C378.541 532.03 322.898 533.973 302.278 495.625L288.716 470.405C280.528 455.176 265.37 444.953 248.184 443.065L219.72 439.939C176.439 435.185 157.397 382.866 187.496 351.405L207.291 330.714C219.244 318.22 224.283 300.645 220.767 283.716L214.945 255.68Z" fill="#3247B4" fill-opacity="0.5"/>
</svg>
